<svg width="122" height="92" viewBox="0 0 122 92" fill="none" xmlns="http://www.w3.org/2000/svg">
<path d="M72.5457 0.29755C68.5523 0.29755 64.5548 1.8088 61.5079 4.84349C60.06 6.28637 58.9111 8.0009 58.1272 9.88874C57.3433 11.7766 56.9398 13.8006 56.9398 15.8447C56.9398 17.8889 57.3433 19.9129 58.1272 21.8007C58.9111 23.6886 60.06 25.4031 61.5079 26.846C61.5266 26.8626 61.5455 26.8788 61.5648 26.8947L83.937 47.7313C84.3122 48.0805 84.8056 48.275 85.3182 48.2757H85.3589C85.8715 48.275 86.3649 48.0805 86.7401 47.7313L109.124 26.8907C115.474 20.9797 115.259 10.9088 109.169 4.84349C108.979 4.65172 108.753 4.4998 108.503 4.39661H108.495C102.373 -1.08776 92.9964 -1.02683 87.1057 4.84349L85.3345 6.60661L83.5754 4.84349C82.1263 3.39723 80.4063 2.25093 78.5136 1.47018C76.621 0.68944 74.593 0.289578 72.5457 0.293485V0.29755ZM72.5457 4.31942V4.32755C75.491 4.32755 78.4364 5.46099 80.7114 7.7238L83.9085 10.9047C84.2891 11.2831 84.804 11.4954 85.3406 11.4954C85.8772 11.4954 86.392 11.2831 86.7726 10.9047L89.9698 7.7238C91.0398 6.64731 92.3121 5.79302 93.7134 5.21006C95.1148 4.6271 96.6176 4.32699 98.1354 4.32699C99.6532 4.32699 101.156 4.6271 102.557 5.21006C103.959 5.79302 105.231 6.64731 106.301 7.7238C106.305 7.72381 106.309 7.72381 106.313 7.7238C110.851 12.2494 110.985 19.6025 106.354 23.9169L85.3426 43.4779L64.3801 23.9657C63.3007 22.9057 62.4432 21.6413 61.8579 20.2463C61.2726 18.8512 60.9712 17.3535 60.9712 15.8407C60.9712 14.3278 61.2726 12.8301 61.8579 11.4351C62.4432 10.0401 63.3007 8.77563 64.3801 7.71567C65.4507 6.64001 66.7231 5.78629 68.1243 5.20348C69.5256 4.62067 71.0281 4.32024 72.5457 4.31942ZM2.11011 37.8838C1.57139 37.8838 1.05473 38.0978 0.673797 38.4787C0.292864 38.8597 0.0788574 39.3763 0.0788574 39.915V81.2835C0.0788574 81.8222 0.292864 82.3389 0.673797 82.7198C1.05473 83.1007 1.57139 83.3147 2.11011 83.3147H24.336C24.8748 83.3147 25.3914 83.1007 25.7724 82.7198C26.1533 82.3389 26.3673 81.8222 26.3673 81.2835V78.2935L64.3111 91.1472C64.3633 91.1629 64.4161 91.1765 64.4695 91.1879C68.8854 92.3091 73.9839 91.6429 77.8351 89.055L117.128 67.7026C117.138 67.7026 117.149 67.7026 117.16 67.7026L118.123 67.1541C119.711 66.2585 120.916 64.8118 121.51 63.0877C122.103 61.3637 122.045 59.4818 121.344 57.7982C120.097 54.8529 117.648 53.5 115.734 53.2197V53.2035C114.567 53.0382 113.378 53.1283 112.249 53.4675C112.181 53.4924 112.114 53.5209 112.049 53.5529L90.3882 63.5994C90.4167 63.3232 90.4776 63.0632 90.4776 62.7829C90.4776 58.2166 86.6995 54.5075 82.1129 54.5075H64.0754C64.0023 54.3694 63.9129 54.1744 63.8398 54.0444C62.8764 52.3004 61.6623 50.7072 60.2364 49.3157C56.279 45.459 50.9665 43.3089 45.4407 43.3275H26.3673V39.915C26.3673 39.3763 26.1533 38.8597 25.7724 38.4787C25.3914 38.0978 24.8748 37.8838 24.336 37.8838H2.11011ZM4.14136 41.9463H22.3048V79.2522H4.14136V41.9463ZM26.3632 47.3901H45.4407C48.1887 47.3783 50.8985 48.0335 53.3375 49.2994C55.7765 50.5653 57.872 52.404 59.4442 54.6579C59.7448 55.0966 60.0292 55.5476 60.2851 56.0147C60.606 56.5875 60.8214 56.941 60.992 57.3391L61.516 58.57H82.1129C84.5504 58.57 86.4151 60.4307 86.4151 62.7829C86.4151 64.546 85.3629 66.0207 83.8151 66.6544L83.7867 66.6626C83.2748 66.8657 82.7142 66.9875 82.1129 66.9875H53.8582V71.05H82.1129C82.966 71.05 83.7664 70.8794 84.5423 70.6438C84.7838 70.6277 85.0204 70.5685 85.241 70.4691L113.589 57.3229C113.626 57.3229 114.296 57.1035 115.145 57.2294C116.019 57.3513 116.851 57.5951 117.607 59.3704C117.935 60.1345 117.964 60.9939 117.689 61.7786C117.414 62.5632 116.854 63.2159 116.12 63.6075L115.169 64.1357L75.7348 85.5776C75.6777 85.6087 75.6221 85.6426 75.5682 85.6791C72.887 87.4829 68.727 88.076 65.477 87.2513H65.4689L26.3673 74.0076L26.3632 47.3901Z" fill="black"/>
</svg>
