<svg width="38" height="38" viewBox="0 0 38 38" fill="none" xmlns="http://www.w3.org/2000/svg">
<path d="M10.6257 0.234619C4.89608 0.234619 0.234619 4.89608 0.234619 10.6257V27.2515C0.234619 32.9812 4.89608 37.6427 10.6257 37.6427H27.2515C32.9812 37.6427 37.6427 32.9812 37.6427 27.2515V10.6257C37.6427 4.89608 32.9812 0.234619 27.2515 0.234619H10.6257ZM10.6257 4.39107H27.2515C30.6889 4.39107 33.4862 7.18836 33.4862 10.6257V27.2515C33.4862 30.6889 30.6889 33.4862 27.2515 33.4862H10.6257C7.18836 33.4862 4.39107 30.6889 4.39107 27.2515V10.6257C4.39107 7.18836 7.18836 4.39107 10.6257 4.39107ZM29.3298 6.46929C28.7786 6.46929 28.25 6.68825 27.8602 7.07799C27.4705 7.46773 27.2515 7.99634 27.2515 8.54752C27.2515 9.09869 27.4705 9.6273 27.8602 10.017C28.25 10.4068 28.7786 10.6257 29.3298 10.6257C29.8809 10.6257 30.4095 10.4068 30.7993 10.017C31.189 9.6273 31.408 9.09869 31.408 8.54752C31.408 7.99634 31.189 7.46773 30.7993 7.07799C30.4095 6.68825 29.8809 6.46929 29.3298 6.46929ZM18.9386 8.54752C13.209 8.54752 8.54752 13.209 8.54752 18.9386C8.54752 24.6683 13.209 29.3298 18.9386 29.3298C24.6683 29.3298 29.3298 24.6683 29.3298 18.9386C29.3298 13.209 24.6683 8.54752 18.9386 8.54752ZM18.9386 12.704C22.376 12.704 25.1733 15.5013 25.1733 18.9386C25.1733 22.376 22.376 25.1733 18.9386 25.1733C15.5013 25.1733 12.704 22.376 12.704 18.9386C12.704 15.5013 15.5013 12.704 18.9386 12.704Z" fill="white" fill-opacity="0.8"/>
</svg>
