<svg width="41" height="28" viewBox="0 0 41 28" fill="none" xmlns="http://www.w3.org/2000/svg">
<path d="M37.3402 0.978222C36.7985 0.995431 36.2937 1.10905 35.8493 1.23838C35.4331 1.35894 33.8427 1.85006 31.3376 2.62353C28.8304 3.39768 25.5105 4.42391 21.9691 5.52041C14.8863 7.71342 6.9234 10.182 2.84477 11.4454C2.6914 11.4929 2.15625 11.616 1.58826 11.9353C1.02026 12.2545 0.416382 12.9161 0.416382 13.6532C0.416382 14.2476 0.809828 14.8382 1.30505 15.1907C1.80028 15.5433 2.32429 15.7175 2.77315 15.8493C4.40176 16.3278 9.45279 17.816 10.4066 18.097C10.7423 18.8374 12.5705 22.864 12.9945 23.8509C13.274 24.5021 13.54 24.91 13.8864 25.2337C14.0596 25.3955 14.261 25.5374 14.5049 25.6485C14.6024 25.693 14.7094 25.7272 14.8174 25.7587L14.8239 25.761C14.8488 25.7682 14.8703 25.7805 14.8955 25.7868C14.9432 25.7988 14.9751 25.8003 15.0388 25.8103C15.2927 25.8693 15.549 25.9063 15.7777 25.9063C16.753 25.9064 17.35 25.5196 17.35 25.5196L17.3858 25.5009L22.4021 22.3767L28.486 26.5204C28.5717 26.6076 29.3706 27.397 31.1325 27.397C32.1787 27.397 33.0086 27.019 33.5414 26.6165C34.0742 26.214 34.4061 25.7911 34.5472 25.2595V25.2571C34.6792 24.7547 40.2862 4.02978 40.2862 4.02978L40.2764 4.05791C40.4405 3.51849 40.4836 3.01614 40.3025 2.52041C40.1213 2.02468 39.6441 1.55004 39.0525 1.29463C38.4608 1.03927 37.882 0.961013 37.3402 0.978222ZM37.0277 3.48603C37.0197 3.52106 37.0337 3.50345 37.0212 3.54463L37.0179 3.55869L37.0147 3.57275C37.0147 3.57275 31.4772 24.0326 31.2725 24.8118C31.2875 24.753 31.219 24.87 31.1488 24.9407C31.0496 24.8915 30.8461 24.8282 30.8461 24.8282L30.8135 24.8024L22.503 19.1423L16.6273 22.7985L18.3754 17.7595C18.3754 17.7595 29.3023 9.6155 29.9607 9.1415C30.4907 8.7623 30.6019 8.63012 30.6019 8.49932C30.6019 8.32412 30.4751 8.19697 30.1918 8.19697C29.9368 8.19697 29.5939 8.37547 29.4105 8.45947C27.022 9.55573 16.5361 13.9559 11.8357 15.9243C11.0887 15.7042 5.89915 14.1747 4.14034 13.6579C4.15366 13.6537 4.14927 13.6552 4.16313 13.6509C8.24283 12.3871 16.2024 9.91857 23.2842 7.72588C26.8251 6.62953 30.1475 5.60252 32.6527 4.829C35.1194 4.06739 36.8333 3.54324 37.0277 3.48603Z" fill="white" fill-opacity="0.8"/>
</svg>
