<svg width="47" height="30" viewBox="0 0 47 30" fill="none" xmlns="http://www.w3.org/2000/svg">
<path d="M4.09468 0.692139C1.76556 0.692139 -0.00797033 2.9824 0.634357 5.2342C2.30677 11.1039 4.78598 16.8517 8.48655 21.3709C12.1871 25.8901 17.192 29.1658 23.5922 29.8157C25.7226 30.0318 27.5599 28.2952 27.5599 26.1889V21.9838C27.5599 21.7214 27.7392 21.5349 27.9435 21.5292C27.9814 21.5283 28.0116 21.5271 28.0308 21.5271C28.7658 21.5271 30.2761 22.448 31.6027 23.8794C32.9294 25.3107 34.1027 27.0827 34.6673 28.0642V28.0662C35.3061 29.1749 36.4964 29.8441 37.7623 29.8441H42.826C45.3479 29.846 47.0354 26.9971 45.8012 24.7906C43.8636 21.3249 39.9979 17.8971 38.0647 16.1875C41.6066 12.298 43.9549 8.05917 44.9955 5.2484C45.7808 3.12476 44.1616 0.734759 41.8782 0.734759H38.2636C36.6924 0.734759 35.2275 1.50031 34.6287 2.72571C31.8156 8.49032 29.3081 10.6076 27.5417 12.1325V4.31077C27.5417 2.35939 25.9225 0.750581 23.9779 0.746936L17.6478 0.736788C15.632 0.734294 14.3821 3.2239 15.5899 4.83844L16.8116 6.47423L16.8137 6.47829C17.0231 6.7552 17.1343 7.08701 17.1343 7.4281V7.43013L17.1587 13.953C14.641 11.2977 11.9056 5.67315 11.0803 3.16409V3.16206C10.5982 1.6964 9.21148 0.706781 7.68084 0.702286H7.67881L4.09671 0.692139H4.09468ZM4.09468 3.80947L7.67272 3.81962C7.89265 3.82014 8.05439 3.93881 8.11921 4.13623C9.14408 7.25277 11.8368 13.1908 15.2509 16.5163C16.1375 17.38 17.4388 17.5551 18.4474 17.1454C19.4561 16.7357 20.278 15.674 20.278 14.4279V14.4259L20.2517 7.4281C20.2517 6.40896 19.918 5.41783 19.3059 4.60505L19.3039 4.60099L18.7458 3.85615L23.9718 3.86427C24.2446 3.8648 24.4243 4.0426 24.4243 4.31077V12.2117C24.4243 14.7416 27.6106 16.1953 29.5265 14.5416H29.5286C31.2847 13.0246 34.3924 10.3171 37.4295 4.09361C37.4999 3.94946 37.4386 3.85209 38.2636 3.85209H41.8782C42.0886 3.85209 42.1502 3.95232 42.071 4.16667C41.1869 6.5548 38.9312 10.7193 35.5867 14.3224C34.5558 15.4331 34.5978 17.2682 35.7632 18.3002C37.5902 19.9161 41.5774 23.6238 43.0797 26.3107C43.2171 26.5565 43.1138 26.727 42.828 26.7268H37.7623C37.588 26.7268 37.4447 26.6417 37.3686 26.5096C36.6935 25.336 35.4555 23.4496 33.89 21.7605C32.3245 20.0715 30.4609 18.4098 28.0308 18.4098C27.9619 18.4098 27.9056 18.4107 27.8623 18.4118H27.8583H27.8563C25.9221 18.4664 24.4426 20.1077 24.4426 21.9838V26.1889C24.4426 26.5121 24.1934 26.7437 23.9068 26.7146C18.3749 26.1529 14.2053 23.4356 10.8976 19.3962C7.5899 15.3567 5.22754 9.97981 3.63195 4.37977C3.54274 4.06704 3.73458 3.80947 4.09468 3.80947Z" fill="white" fill-opacity="0.8"/>
</svg>
